# xmcd
#
# Track frame offsets:
#	183
#	23023
#	47583
#	69793
#	89783
#	120325
#	134453
#	151450
#	170603
#	184743
#	213398
#	238168
#
# Disc length: 3609
#
# Revision: 2
# Processed by: cddbd v1.5.1PL0 Copyright (c) Steve Scherf et al.
# Submitted via: VisiTrax 2.9.5.181 - For more info visit www.synapsa.com
# Normalized: r1:DSETVAR1
#
DISCID=a10e170c
DTITLE=Various Artist - Blues Album 2
DYEAR=1987
DGENRE=Blues
TTITLE0=Derek and The Dominoes - Nobody knows you when you're down and out
TTITLE1=Albert Collins and Robert Cray - The dream
TTITLE2=Lonnie Mac - Falling back in love with you
TTITLE3=Chicken Chack - The way it is
TTITLE4=Son Seals - Last night
TTITLE5=Eric Clapton and John Mayall - Ramblin' on my mind
TTITLE6=Flavium - Nightlife
TTITLE7=Big Twist and Mellow Fellows - I brought the blues on my self
TTITLE8=Fleetwood Mac - Albatros
TTITLE9=James Cotton - 23 Hours Too Long
TTITLE10=Lonnie Brooks - Mr. Somebody
TTITLE11=Muddy Waters - Clouds in my heart
EXTD=
EXTT0=
EXTT1=
EXTT2=
EXTT3=
EXTT4=
EXTT5=
EXTT6=
EXTT7=
EXTT8=
EXTT9=
EXTT10=
EXTT11=
PLAYORDER=
